<svg width="82" height="101" viewBox="0 0 82 101" fill="none" xmlns="http://www.w3.org/2000/svg">
<path d="M37.1516 41.4973C37.9007 40.3667 38.5436 39.3935 39.1903 38.4224C43.6469 31.7305 48.6951 25.5784 55.159 20.6944C57.5001 18.926 59.8713 17.2119 62.53 15.954C65.286 14.6499 68.1648 13.8971 71.2534 14.2233C73.3766 14.4478 75.2139 15.2864 76.7332 16.7796C80.255 20.2398 81.6121 24.472 80.9932 29.3262C80.5496 32.8043 79.5016 36.1278 77.9705 39.2825C71.3416 52.9401 62.2208 64.6847 50.5463 74.3543C42.0741 81.3726 33.1893 87.863 24.0004 93.9227C21.4244 95.6206 18.8558 97.3303 16.2784 99.0264C15.7506 99.3732 15.2224 99.7348 14.6522 99.9979C13.4585 100.549 12.187 100.419 11.8593 99.6875C11.3716 98.601 12.078 97.8177 12.8242 97.2603C14.597 95.9356 16.4184 94.6676 18.2863 93.4823C27.4507 87.6692 36.1315 81.1807 44.7343 74.5821C57.3123 64.9351 67.0889 52.959 74.2939 38.8547C75.9624 35.5881 77.1431 32.1585 77.5517 28.4911C77.9027 25.3368 77.0708 22.5209 75.0487 20.0907C73.4715 18.196 71.4759 17.337 68.9571 17.6966C66.3231 18.0721 63.9267 18.9977 61.6829 20.4019C54.2446 25.0559 48.3397 31.26 43.4206 38.4651C41.6351 41.0795 39.8767 43.71 38.4582 46.5508C38.2821 46.9041 38.0828 47.2483 37.8629 47.5758C37.3477 48.3431 36.6915 48.8769 35.6925 48.7001C34.6933 48.524 34.2579 47.8021 34.0396 46.9022C33.6274 45.2035 33.4696 43.4697 33.364 41.7309C32.8469 33.19 30.9844 24.9844 27.2891 17.2365C25.8515 14.2223 24.0995 11.4093 21.9454 8.85085C20.7125 7.38604 19.3264 6.0998 17.6577 5.14952C14.1938 3.17725 11.3437 3.69391 8.87943 6.83405C6.84088 9.43204 5.63684 12.4421 4.96347 15.6547C3.81128 21.1532 3.91348 26.6872 4.88791 32.1805C6.70434 42.42 9.7817 52.3132 13.4778 62.0115C15.1797 66.4769 17.686 70.5126 20.7114 74.2176C21.2343 74.8575 22.2108 75.5901 21.2785 76.414C20.2932 77.2847 19.7571 76.1046 19.24 75.5171C15.5474 71.321 12.6287 66.6148 10.5741 61.4275C7.10479 52.6679 4.07076 43.7502 2.00396 34.5443C0.480384 27.7594 0.106814 20.9134 1.75488 14.0638C2.42711 11.2706 3.50909 8.64915 5.00116 6.1971C5.62088 5.17883 6.37724 4.26645 7.22414 3.4265C10.3295 0.348616 13.9108 -0.242349 17.9088 1.36757C20.7028 2.49263 22.8347 4.47602 24.7393 6.7342C28.1467 10.7743 30.579 15.3889 32.4409 20.2969C34.7255 26.3185 36.1698 32.5507 36.649 38.9903C36.706 39.7504 36.6809 40.5238 37.1516 41.4973Z" fill="#EFE1D1"/>
</svg>
